<svg width="95" height="47" viewBox="0 0 95 47" fill="none" xmlns="http://www.w3.org/2000/svg">
<mask id="path-1-inside-1_51_3535" fill="white">
<path fill-rule="evenodd" clip-rule="evenodd" d="M0.246718 15.2935C1.59149 6.22976 8.54176 0.372716 17.3994 0.0601739C17.5669 0.0543695 17.7353 0.0426256 17.9015 0.0310409C18.9878 -0.0447054 19.9764 -0.11364 19.9586 1.52912C19.9449 2.91681 19.5332 3.43563 17.8385 3.58565C9.83164 4.28575 4.727 9.01764 4.26045 16.3874C3.96542 21.1505 3.986 25.9574 4.29475 30.7206C4.73386 37.5965 9.90025 42.3097 17.5641 43.1848C17.6373 43.193 17.7096 43.201 17.7809 43.2088C19.1668 43.3605 20.1763 43.471 20.0066 45.2663C19.855 46.8524 18.8622 46.7717 17.9011 46.6936H17.901H17.901H17.9009C17.6879 46.6763 17.4764 46.6591 17.2759 46.6603C9.04262 46.6915 1.35135 40.4219 0.438828 32.4958C-0.245471 26.5171 0.0188977 20.4886 0.244926 15.3344L0.246718 15.2935ZM94.7515 30.5894C93.5783 40.1594 86.9162 46.2353 77.9968 46.6603C77.8118 46.6689 77.6164 46.6893 77.4176 46.71C76.319 46.8244 75.12 46.9492 75.0328 45.1601C74.9489 43.4259 76.012 43.3226 77.3602 43.1917L77.3605 43.1917L77.4521 43.1828C77.5074 43.1773 77.5632 43.1718 77.6194 43.1661C84.803 42.441 89.8802 38.0154 90.5594 31.4707C91.1152 26.1013 91.2044 20.6693 90.5457 15.2936C89.7155 8.49888 84.8441 4.24205 77.3793 3.4982C77.2627 3.48652 77.1476 3.47647 77.0346 3.46662L77.0345 3.46661L77.0344 3.4666C75.8782 3.36572 74.9528 3.28498 75.0465 1.6792C75.143 0.0270504 76.1616 0.0332237 77.3624 0.0405008C77.4427 0.0409879 77.5239 0.0414799 77.6057 0.0414799C86.2781 0.0289782 93.8047 6.49861 94.6486 15.0748C95.1906 20.5568 95.0054 26.0763 94.7584 30.5956L94.7515 30.5894ZM17.6644 34.315C16.0449 37.6211 18.4412 41.1835 22.4409 41.2165L22.4419 41.2147C22.5079 41.2078 22.5863 41.2034 22.673 41.1986C22.8955 41.1862 23.1723 41.1709 23.4321 41.1008C24.02 40.9418 24.6093 40.7864 25.1987 40.6309L25.1994 40.6307L25.1995 40.6307C27.0033 40.1548 28.8076 39.6788 30.5729 39.1015C32.675 38.4146 33.5864 36.4594 32.9063 34.5464C32.4417 33.2405 31.1164 32.2863 29.6116 32.1614C29.5745 32.1583 29.5334 32.1587 29.4915 32.159H29.4914C29.2946 32.1606 29.0816 32.1623 29.1958 31.8133C29.5518 30.7287 29.4072 29.7011 28.7551 28.7304C28.6932 28.6385 28.7152 28.4347 28.787 28.3401C29.8659 26.9258 30.9548 25.5179 32.0607 24.122C32.1475 24.0127 32.3918 23.9337 32.5444 23.9548C34.1927 24.1881 35.521 23.6977 36.5341 22.49C36.6007 22.4107 36.6675 22.3314 36.7343 22.2521C37.1873 21.7145 37.6419 21.1751 38.0269 20.5973C38.4926 19.8984 38.9573 19.1747 39.2494 18.406C40.103 16.1615 39.061 13.8757 36.7864 12.7581C35.0234 11.8911 33.1796 11.9793 31.4205 12.5817C29.3264 13.299 27.2812 14.1622 25.2879 15.0953C23.466 15.9485 22.8188 17.9303 23.6226 19.6376C24.4303 21.3522 26.4625 22.2017 28.416 21.6332C28.5394 21.5975 28.6726 21.5348 28.803 21.4734C29.0385 21.3626 29.2652 21.2559 29.4102 21.3191C29.575 21.3913 29.6611 21.6023 29.7504 21.8214C29.8043 21.9536 29.8594 22.0888 29.9337 22.198C30.0963 22.4359 30.0544 22.5947 29.8839 22.8078C29.4044 23.4078 28.9289 24.0104 28.4534 24.613L28.4533 24.6132C27.8451 25.384 27.2368 26.1549 26.6201 26.9203C26.5224 27.0415 26.2741 27.1388 26.1095 27.1241C24.5479 26.9809 23.2636 27.4272 22.2863 28.5761C21.8995 29.0309 21.5115 29.4849 21.1234 29.9389L21.1228 29.9397L21.1221 29.9404C20.2262 30.9887 19.3301 32.0371 18.4482 33.0954C18.138 33.4682 17.8748 33.8861 17.6644 34.315ZM40.2575 10.913C37.6847 10.9139 35.6724 9.06431 35.6664 6.69399C35.6595 4.3797 37.6768 2.50255 40.1747 2.49796C42.8402 2.49336 44.8256 4.29796 44.8335 6.73348C44.8415 9.05329 42.8063 10.9112 40.2575 10.913ZM40.2823 39.8446C42.0892 40.8355 44.0806 41.1771 46.1587 41.2533H46.1607C46.4301 41.2271 46.7 41.2043 46.97 41.1815C47.5595 41.1317 48.149 41.0819 48.7325 40.9962C54.2968 40.1788 59.2966 38.1759 63.6444 34.8596C64.6017 34.1295 65.0524 33.1239 64.9427 31.9622C64.6834 29.2181 61.4895 27.7331 58.9077 29.1611C58.4871 29.3939 58.0858 29.656 57.6845 29.9182C57.435 30.0811 57.1855 30.2441 56.9313 30.4C54.3835 31.9649 51.6991 33.2727 48.6537 33.7649C47.5777 33.9394 46.4429 33.8908 45.343 33.8301C44.6969 33.7943 44.5343 33.506 44.6061 32.9053C44.657 32.4829 44.7597 32.0623 44.8784 31.6509C45.2712 30.2871 44.9332 29.1024 43.8413 28.1234C43.5691 27.8791 43.579 27.7101 43.7416 27.4346C45.5744 24.3278 48.0045 21.647 50.682 19.138C50.9432 18.8938 51.1616 18.8359 51.5027 18.9736C51.753 19.0748 52.0408 19.11 52.317 19.1437L52.3233 19.1445C53.6396 19.3061 54.7046 18.7891 55.7197 18.0948C58.099 16.4665 60.599 15.021 63.3203 13.9208C64.9636 13.2559 66.6638 12.8261 68.4827 12.8931C69.6813 12.9372 70.138 13.2403 70.508 14.2927C71.1751 16.1891 73.2831 17.2857 75.2546 16.7604C77.4494 16.1754 78.6719 14.2771 78.0627 12.2723C76.9438 8.59238 74.2056 6.51962 70.2138 5.80696C67.5264 5.32757 64.9198 5.82625 62.375 6.60686C57.8936 7.98166 53.9348 10.2381 50.2013 12.8527C48.9818 13.7068 48.5251 15.2047 49.0127 16.6134C49.1363 16.9725 49.0635 17.1911 48.7833 17.451C45.7499 20.264 43.0226 23.2918 41.0771 26.8634C41.0123 26.9818 40.8178 27.0911 40.6682 27.1123C39.1007 27.3299 38.0247 28.116 37.4443 29.4651C36.7722 31.0273 36.5439 32.6601 36.6446 34.327C36.7922 36.7533 38.0147 38.6011 40.2823 39.8446Z"/>
</mask>
<path fill-rule="evenodd" clip-rule="evenodd" d="M0.246718 15.2935C1.59149 6.22976 8.54176 0.372716 17.3994 0.0601739C17.5669 0.0543695 17.7353 0.0426256 17.9015 0.0310409C18.9878 -0.0447054 19.9764 -0.11364 19.9586 1.52912C19.9449 2.91681 19.5332 3.43563 17.8385 3.58565C9.83164 4.28575 4.727 9.01764 4.26045 16.3874C3.96542 21.1505 3.986 25.9574 4.29475 30.7206C4.73386 37.5965 9.90025 42.3097 17.5641 43.1848C17.6373 43.193 17.7096 43.201 17.7809 43.2088C19.1668 43.3605 20.1763 43.471 20.0066 45.2663C19.855 46.8524 18.8622 46.7717 17.9011 46.6936H17.901H17.901H17.9009C17.6879 46.6763 17.4764 46.6591 17.2759 46.6603C9.04262 46.6915 1.35135 40.4219 0.438828 32.4958C-0.245471 26.5171 0.0188977 20.4886 0.244926 15.3344L0.246718 15.2935ZM94.7515 30.5894C93.5783 40.1594 86.9162 46.2353 77.9968 46.6603C77.8118 46.6689 77.6164 46.6893 77.4176 46.71C76.319 46.8244 75.12 46.9492 75.0328 45.1601C74.9489 43.4259 76.012 43.3226 77.3602 43.1917L77.3605 43.1917L77.4521 43.1828C77.5074 43.1773 77.5632 43.1718 77.6194 43.1661C84.803 42.441 89.8802 38.0154 90.5594 31.4707C91.1152 26.1013 91.2044 20.6693 90.5457 15.2936C89.7155 8.49888 84.8441 4.24205 77.3793 3.4982C77.2627 3.48652 77.1476 3.47647 77.0346 3.46662L77.0345 3.46661L77.0344 3.4666C75.8782 3.36572 74.9528 3.28498 75.0465 1.6792C75.143 0.0270504 76.1616 0.0332237 77.3624 0.0405008C77.4427 0.0409879 77.5239 0.0414799 77.6057 0.0414799C86.2781 0.0289782 93.8047 6.49861 94.6486 15.0748C95.1906 20.5568 95.0054 26.0763 94.7584 30.5956L94.7515 30.5894ZM17.6644 34.315C16.0449 37.6211 18.4412 41.1835 22.4409 41.2165L22.4419 41.2147C22.5079 41.2078 22.5863 41.2034 22.673 41.1986C22.8955 41.1862 23.1723 41.1709 23.4321 41.1008C24.02 40.9418 24.6093 40.7864 25.1987 40.6309L25.1994 40.6307L25.1995 40.6307C27.0033 40.1548 28.8076 39.6788 30.5729 39.1015C32.675 38.4146 33.5864 36.4594 32.9063 34.5464C32.4417 33.2405 31.1164 32.2863 29.6116 32.1614C29.5745 32.1583 29.5334 32.1587 29.4915 32.159H29.4914C29.2946 32.1606 29.0816 32.1623 29.1958 31.8133C29.5518 30.7287 29.4072 29.7011 28.7551 28.7304C28.6932 28.6385 28.7152 28.4347 28.787 28.3401C29.8659 26.9258 30.9548 25.5179 32.0607 24.122C32.1475 24.0127 32.3918 23.9337 32.5444 23.9548C34.1927 24.1881 35.521 23.6977 36.5341 22.49C36.6007 22.4107 36.6675 22.3314 36.7343 22.2521C37.1873 21.7145 37.6419 21.1751 38.0269 20.5973C38.4926 19.8984 38.9573 19.1747 39.2494 18.406C40.103 16.1615 39.061 13.8757 36.7864 12.7581C35.0234 11.8911 33.1796 11.9793 31.4205 12.5817C29.3264 13.299 27.2812 14.1622 25.2879 15.0953C23.466 15.9485 22.8188 17.9303 23.6226 19.6376C24.4303 21.3522 26.4625 22.2017 28.416 21.6332C28.5394 21.5975 28.6726 21.5348 28.803 21.4734C29.0385 21.3626 29.2652 21.2559 29.4102 21.3191C29.575 21.3913 29.6611 21.6023 29.7504 21.8214C29.8043 21.9536 29.8594 22.0888 29.9337 22.198C30.0963 22.4359 30.0544 22.5947 29.8839 22.8078C29.4044 23.4078 28.9289 24.0104 28.4534 24.613L28.4533 24.6132C27.8451 25.384 27.2368 26.1549 26.6201 26.9203C26.5224 27.0415 26.2741 27.1388 26.1095 27.1241C24.5479 26.9809 23.2636 27.4272 22.2863 28.5761C21.8995 29.0309 21.5115 29.4849 21.1234 29.9389L21.1228 29.9397L21.1221 29.9404C20.2262 30.9887 19.3301 32.0371 18.4482 33.0954C18.138 33.4682 17.8748 33.8861 17.6644 34.315ZM40.2575 10.913C37.6847 10.9139 35.6724 9.06431 35.6664 6.69399C35.6595 4.3797 37.6768 2.50255 40.1747 2.49796C42.8402 2.49336 44.8256 4.29796 44.8335 6.73348C44.8415 9.05329 42.8063 10.9112 40.2575 10.913ZM40.2823 39.8446C42.0892 40.8355 44.0806 41.1771 46.1587 41.2533H46.1607C46.4301 41.2271 46.7 41.2043 46.97 41.1815C47.5595 41.1317 48.149 41.0819 48.7325 40.9962C54.2968 40.1788 59.2966 38.1759 63.6444 34.8596C64.6017 34.1295 65.0524 33.1239 64.9427 31.9622C64.6834 29.2181 61.4895 27.7331 58.9077 29.1611C58.4871 29.3939 58.0858 29.656 57.6845 29.9182C57.435 30.0811 57.1855 30.2441 56.9313 30.4C54.3835 31.9649 51.6991 33.2727 48.6537 33.7649C47.5777 33.9394 46.4429 33.8908 45.343 33.8301C44.6969 33.7943 44.5343 33.506 44.6061 32.9053C44.657 32.4829 44.7597 32.0623 44.8784 31.6509C45.2712 30.2871 44.9332 29.1024 43.8413 28.1234C43.5691 27.8791 43.579 27.7101 43.7416 27.4346C45.5744 24.3278 48.0045 21.647 50.682 19.138C50.9432 18.8938 51.1616 18.8359 51.5027 18.9736C51.753 19.0748 52.0408 19.11 52.317 19.1437L52.3233 19.1445C53.6396 19.3061 54.7046 18.7891 55.7197 18.0948C58.099 16.4665 60.599 15.021 63.3203 13.9208C64.9636 13.2559 66.6638 12.8261 68.4827 12.8931C69.6813 12.9372 70.138 13.2403 70.508 14.2927C71.1751 16.1891 73.2831 17.2857 75.2546 16.7604C77.4494 16.1754 78.6719 14.2771 78.0627 12.2723C76.9438 8.59238 74.2056 6.51962 70.2138 5.80696C67.5264 5.32757 64.9198 5.82625 62.375 6.60686C57.8936 7.98166 53.9348 10.2381 50.2013 12.8527C48.9818 13.7068 48.5251 15.2047 49.0127 16.6134C49.1363 16.9725 49.0635 17.1911 48.7833 17.451C45.7499 20.264 43.0226 23.2918 41.0771 26.8634C41.0123 26.9818 40.8178 27.0911 40.6682 27.1123C39.1007 27.3299 38.0247 28.116 37.4443 29.4651C36.7722 31.0273 36.5439 32.6601 36.6446 34.327C36.7922 36.7533 38.0147 38.6011 40.2823 39.8446Z" fill="#F5EDDB"/>
<path d="M17.3994 0.0601739L17.3648 -0.939226L17.3641 -0.939204L17.3994 0.0601739ZM0.246718 15.2935L-0.742454 15.1467L-0.750053 15.198L-0.752322 15.2497L0.246718 15.2935ZM17.9015 0.0310409L17.8319 -0.966537L17.8319 -0.966537L17.9015 0.0310409ZM19.9586 1.52912L18.9587 1.51826L18.9586 1.51924L19.9586 1.52912ZM17.8385 3.58565L17.9256 4.58185L17.9267 4.58176L17.8385 3.58565ZM4.26045 16.3874L3.26244 16.3242L3.26236 16.3256L4.26045 16.3874ZM4.29475 30.7206L5.29272 30.6569L5.29266 30.6559L4.29475 30.7206ZM17.5641 43.1848L17.4506 44.1783L17.4519 44.1785L17.5641 43.1848ZM17.7809 43.2088L17.6721 44.2028L17.6721 44.2028L17.7809 43.2088ZM20.0066 45.2663L21.0021 45.3615L21.0022 45.3604L20.0066 45.2663ZM17.9011 46.6936L17.982 45.6969L17.9416 45.6936H17.9011V46.6936ZM17.9009 46.6936L17.82 47.6903L17.8604 47.6936H17.9009V46.6936ZM17.2759 46.6603L17.2797 47.6602L17.2816 47.6602L17.2759 46.6603ZM0.438828 32.4958L-0.554686 32.6095L-0.55461 32.6102L0.438828 32.4958ZM0.244926 15.3344L-0.754114 15.2905L-0.754114 15.2905L0.244926 15.3344ZM77.9968 46.6603L78.0433 47.6592L78.0444 47.6592L77.9968 46.6603ZM94.7515 30.5894L95.4252 29.8503L93.9945 28.5462L93.759 30.4677L94.7515 30.5894ZM77.4176 46.71L77.3141 45.7154L77.3141 45.7154L77.4176 46.71ZM75.0328 45.1601L74.034 45.2084L74.034 45.2088L75.0328 45.1601ZM77.3602 43.1917L77.4569 44.187L77.4658 44.1861L77.4748 44.1851L77.3602 43.1917ZM77.3605 43.1917L77.2636 42.1964L77.2547 42.1972L77.2459 42.1983L77.3605 43.1917ZM77.4521 43.1828L77.549 44.178L77.5493 44.178L77.4521 43.1828ZM77.6194 43.1661L77.519 42.1711L77.5178 42.1713L77.6194 43.1661ZM90.5594 31.4707L91.5541 31.574L91.5541 31.5737L90.5594 31.4707ZM90.5457 15.2936L89.5531 15.4148L89.5531 15.4152L90.5457 15.2936ZM77.3793 3.4982L77.2796 4.49322L77.2801 4.49327L77.3793 3.4982ZM77.0346 3.46662L77.1216 2.4704L77.1177 2.47007L77.0346 3.46662ZM77.0345 3.46661L76.9412 4.4623L76.9515 4.46316L77.0345 3.46661ZM77.0344 3.4666L77.1277 2.47094L77.1213 2.47038L77.0344 3.4666ZM75.0465 1.6792L74.0482 1.62092L74.0482 1.62092L75.0465 1.6792ZM77.3624 0.0405008L77.3563 1.04048L77.3563 1.04048L77.3624 0.0405008ZM77.6057 0.0414799V1.04148L77.6071 1.04148L77.6057 0.0414799ZM94.6486 15.0748L93.6534 15.1727L93.6535 15.1732L94.6486 15.0748ZM94.7584 30.5956L94.0847 31.3347L95.6419 32.7541L95.7569 30.6502L94.7584 30.5956ZM22.4409 41.2165L22.4326 42.2165L23.0334 42.2215L23.3199 41.6934L22.4409 41.2165ZM17.6644 34.315L16.7666 33.8745L16.7663 33.8751L17.6644 34.315ZM22.4419 41.2147L22.3371 40.2202L21.8138 40.2753L21.5629 40.7378L22.4419 41.2147ZM22.673 41.1986L22.7284 42.1971L22.7284 42.1971L22.673 41.1986ZM23.4321 41.1008L23.6925 42.0663L23.6931 42.0661L23.4321 41.1008ZM25.1987 40.6309L24.9483 39.6627L24.9436 39.6639L25.1987 40.6309ZM25.1994 40.6307L24.9568 39.6605L24.949 39.6625L25.1994 40.6307ZM25.1995 40.6307L25.4421 41.6009L25.4546 41.5976L25.1995 40.6307ZM30.5729 39.1015L30.2623 38.151L30.2621 38.1511L30.5729 39.1015ZM32.9063 34.5464L33.8486 34.2114L33.8485 34.2112L32.9063 34.5464ZM29.6116 32.1614L29.6944 31.1648L29.6938 31.1648L29.6116 32.1614ZM29.4915 32.159V33.159L29.4996 33.159L29.4915 32.159ZM29.4914 32.159V31.159L29.4833 31.159L29.4914 32.159ZM29.1958 31.8133L28.2457 31.5015L28.2455 31.5022L29.1958 31.8133ZM28.7551 28.7304L29.5851 28.1727L29.5846 28.1719L28.7551 28.7304ZM28.787 28.3401L27.9919 27.7335L27.9904 27.7355L28.787 28.3401ZM32.0607 24.122L31.2775 23.5002L31.2769 23.501L32.0607 24.122ZM32.5444 23.9548L32.6845 22.9647L32.6815 22.9643L32.5444 23.9548ZM36.5341 22.49L37.3002 23.1327L37.3003 23.1326L36.5341 22.49ZM36.7343 22.2521L35.9696 21.6076L35.9696 21.6076L36.7343 22.2521ZM38.0269 20.5973L37.1947 20.0428L37.1947 20.0428L38.0269 20.5973ZM39.2494 18.406L38.3147 18.0506L38.3147 18.0507L39.2494 18.406ZM36.7864 12.7581L36.3451 13.6554L36.3454 13.6556L36.7864 12.7581ZM31.4205 12.5817L31.0965 11.6357L31.0965 11.6357L31.4205 12.5817ZM25.2879 15.0953L24.8639 14.1896L24.8638 14.1897L25.2879 15.0953ZM23.6226 19.6376L22.7178 20.0635L22.7179 20.0637L23.6226 19.6376ZM28.416 21.6332L28.1381 20.6726L28.1366 20.673L28.416 21.6332ZM28.803 21.4734L28.3772 20.5686L28.3772 20.5686L28.803 21.4734ZM29.4102 21.3191L29.8113 20.4031L29.8099 20.4025L29.4102 21.3191ZM29.7504 21.8214L28.8244 22.199L28.8244 22.199L29.7504 21.8214ZM29.9337 22.198L29.1069 22.7605L29.1081 22.7622L29.9337 22.198ZM29.8839 22.8078L29.1031 22.1829L29.1027 22.1835L29.8839 22.8078ZM28.4534 24.613L27.6683 23.9936L27.6671 23.9952L28.4534 24.613ZM28.4533 24.6132L29.2383 25.2326L29.2396 25.231L28.4533 24.6132ZM26.6201 26.9203L27.3986 27.5479L27.3988 27.5477L26.6201 26.9203ZM26.1095 27.1241L26.0182 28.12L26.0206 28.1202L26.1095 27.1241ZM22.2863 28.5761L23.048 29.224L23.048 29.224L22.2863 28.5761ZM21.1234 29.9389L21.8835 30.5888L21.8836 30.5886L21.1234 29.9389ZM21.1221 29.9404L20.362 29.2906L20.3619 29.2907L21.1221 29.9404ZM18.4482 33.0954L17.68 32.4552L17.6793 32.4559L18.4482 33.0954ZM35.6664 6.69399L36.6664 6.69147L36.6664 6.69098L35.6664 6.69399ZM40.2575 10.913L40.2578 11.913L40.2582 11.913L40.2575 10.913ZM40.1747 2.49796L40.173 1.49796L40.1729 1.49796L40.1747 2.49796ZM44.8335 6.73348L43.8336 6.73676L43.8336 6.73692L44.8335 6.73348ZM46.1587 41.2533L46.1221 42.2527L46.1404 42.2533H46.1587V41.2533ZM40.2823 39.8446L40.7632 38.9678L40.7631 38.9677L40.2823 39.8446ZM46.1607 41.2533V42.2533H46.2093L46.2577 42.2486L46.1607 41.2533ZM46.97 41.1815L47.0541 42.1779L47.0541 42.1779L46.97 41.1815ZM48.7325 40.9962L48.8777 41.9856L48.8778 41.9856L48.7325 40.9962ZM63.6444 34.8596L63.0379 34.0645L63.0379 34.0645L63.6444 34.8596ZM64.9427 31.9622L65.9383 31.8682L65.9383 31.8681L64.9427 31.9622ZM58.9077 29.1611L58.4237 28.2861L58.4236 28.2862L58.9077 29.1611ZM57.6845 29.9182L57.1376 29.0809L57.1376 29.0809L57.6845 29.9182ZM56.9313 30.4L56.4084 29.5477L56.4079 29.5479L56.9313 30.4ZM48.6537 33.7649L48.4941 32.7778L48.4936 32.7778L48.6537 33.7649ZM45.343 33.8301L45.2877 34.8286L45.288 34.8286L45.343 33.8301ZM44.6061 32.9053L43.6133 32.7858L43.6132 32.7866L44.6061 32.9053ZM44.8784 31.6509L45.8392 31.928L45.8393 31.9277L44.8784 31.6509ZM43.8413 28.1234L43.1734 28.8677L43.1737 28.8679L43.8413 28.1234ZM43.7416 27.4346L44.6028 27.9427L44.6029 27.9427L43.7416 27.4346ZM50.682 19.138L49.999 18.4076L49.9982 18.4084L50.682 19.138ZM51.5027 18.9736L51.8773 18.0465L51.8772 18.0464L51.5027 18.9736ZM52.317 19.1437L52.1958 20.1363L52.196 20.1364L52.317 19.1437ZM52.3233 19.1445L52.4452 18.1519L52.4443 18.1518L52.3233 19.1445ZM55.7197 18.0948L56.2843 18.9202L56.2845 18.92L55.7197 18.0948ZM63.3203 13.9208L63.6951 14.8479L63.6953 14.8478L63.3203 13.9208ZM68.4827 12.8931L68.4459 13.8924L68.446 13.8924L68.4827 12.8931ZM70.508 14.2927L69.5646 14.6243L69.5647 14.6246L70.508 14.2927ZM75.2546 16.7604L75.5121 17.7267L75.5121 17.7266L75.2546 16.7604ZM78.0627 12.2723L79.0195 11.9815L79.0194 11.9814L78.0627 12.2723ZM70.2138 5.80696L70.3896 4.82253L70.3894 4.8225L70.2138 5.80696ZM62.375 6.60686L62.0817 5.65083L62.0817 5.65084L62.375 6.60686ZM50.2013 12.8527L49.6277 12.0336L49.6277 12.0336L50.2013 12.8527ZM49.0127 16.6134L49.9582 16.2878L49.9577 16.2863L49.0127 16.6134ZM48.7833 17.451L49.4633 18.1842L49.4634 18.1842L48.7833 17.451ZM41.0771 26.8634L41.9544 27.3433L41.9553 27.3417L41.0771 26.8634ZM40.6682 27.1123L40.8058 28.1028L40.8081 28.1024L40.6682 27.1123ZM37.4443 29.4651L38.3629 29.8603L38.3629 29.8603L37.4443 29.4651ZM36.6446 34.327L35.6464 34.3873L35.6464 34.3877L36.6446 34.327ZM17.3641 -0.939204C8.04294 -0.610305 0.675764 5.58797 -0.742454 15.1467L1.23589 15.4403C2.50721 6.87155 9.04058 1.35574 17.4347 1.05955L17.3641 -0.939204ZM17.8319 -0.966537C17.6628 -0.954747 17.5118 -0.944323 17.3648 -0.939226L17.434 1.05957C17.6219 1.05306 17.8078 1.04 17.971 1.02862L17.8319 -0.966537ZM20.9585 1.53999C20.964 1.04044 20.8958 0.568831 20.6991 0.158845C20.4896 -0.277951 20.1623 -0.585072 19.7689 -0.769654C19.404 -0.940859 19.0257 -0.986528 18.7186 -0.997245C18.4113 -1.00796 18.0913 -0.984623 17.8319 -0.966537L17.971 1.02862C18.2548 1.00883 18.4657 0.995151 18.6488 1.00154C18.832 1.00793 18.9035 1.0335 18.9193 1.04094C18.9218 1.04212 18.9127 1.03787 18.901 1.02645C18.8893 1.01486 18.8891 1.00978 18.8958 1.02387C18.9135 1.06062 18.9621 1.19642 18.9587 1.51826L20.9585 1.53999ZM17.9267 4.58176C18.8091 4.50364 19.6575 4.31715 20.242 3.72256C20.8479 3.10625 20.9512 2.27978 20.9585 1.53901L18.9586 1.51924C18.9522 2.16615 18.8429 2.29294 18.8158 2.32047C18.7674 2.36972 18.5626 2.51764 17.7503 2.58955L17.9267 4.58176ZM5.25845 16.4506C5.47735 12.9928 6.77491 10.2148 8.90619 8.21458C11.0454 6.2069 14.0966 4.91665 17.9256 4.58185L17.7514 2.58945C13.5736 2.95475 10.069 4.38049 7.53753 6.75623C4.99813 9.13944 3.5101 12.4122 3.26245 16.3242L5.25845 16.4506ZM5.29266 30.6559C4.98652 25.9329 4.96624 21.1683 5.25854 16.4492L3.26236 16.3256C2.96461 21.1327 2.98549 25.9819 3.29685 30.7853L5.29266 30.6559ZM17.6775 42.1912C10.387 41.3587 5.69454 36.9488 5.29272 30.6569L3.29679 30.7843C3.77319 38.2442 9.41355 43.2606 17.4506 44.1783L17.6775 42.1912ZM17.8898 42.2147C17.8182 42.2069 17.7475 42.1991 17.6762 42.1911L17.4519 44.1785C17.5271 44.187 17.6011 44.1951 17.6721 44.2028L17.8898 42.2147ZM21.0022 45.3604C21.0525 44.8284 21.0258 44.3278 20.8696 43.8796C20.7045 43.406 20.413 43.0446 20.0338 42.7905C19.6787 42.5525 19.2854 42.4345 18.9411 42.3628C18.5978 42.2913 18.2237 42.2513 17.8898 42.2147L17.6721 44.2028C18.0311 44.2421 18.3029 44.2728 18.5333 44.3208C18.7628 44.3686 18.8711 44.4188 18.9204 44.4519C18.9456 44.4688 18.9612 44.4811 18.981 44.5379C19.0097 44.6201 19.0456 44.8066 19.0111 45.1722L21.0022 45.3604ZM17.8201 47.6903C18.2254 47.7233 18.9926 47.8095 19.656 47.5212C20.4884 47.1594 20.905 46.377 21.0021 45.3615L19.0112 45.1711C18.9825 45.471 18.9214 45.6052 18.8928 45.6524C18.8746 45.6825 18.8693 45.6823 18.8588 45.6869C18.8282 45.7002 18.7512 45.7225 18.5872 45.727C18.4203 45.7315 18.2334 45.7173 17.982 45.6969L17.8201 47.6903ZM17.901 47.6936H17.9011V45.6936H17.901V47.6936ZM17.901 47.6936H17.901V45.6936H17.901V47.6936ZM17.9009 47.6936H17.901V45.6936H17.9009V47.6936ZM17.2816 47.6602C17.4308 47.6594 17.5977 47.6723 17.82 47.6903L17.9819 45.6969C17.778 45.6803 17.522 45.6588 17.2703 45.6603L17.2816 47.6602ZM-0.55461 32.6102C0.422537 41.0976 8.59446 47.6932 17.2797 47.6602L17.2721 45.6603C9.49077 45.6898 2.28017 39.7462 1.43227 32.3815L-0.55461 32.6102ZM-0.754114 15.2905C-0.979677 20.4342 -1.24937 26.5401 -0.554686 32.6095L1.43234 32.3821C0.758424 26.4941 1.01747 20.543 1.24397 15.3782L-0.754114 15.2905ZM-0.752322 15.2497L-0.754114 15.2905L1.24397 15.3782L1.24576 15.3373L-0.752322 15.2497ZM78.0444 47.6592C87.4665 47.2102 94.5136 40.7484 95.7441 30.7111L93.759 30.4677C92.643 39.5704 86.3658 45.2603 77.9492 45.6614L78.0444 47.6592ZM77.5212 47.7046C77.7261 47.6833 77.8921 47.6663 78.0433 47.6592L77.9503 45.6614C77.7315 45.6716 77.5067 45.6953 77.3141 45.7154L77.5212 47.7046ZM74.034 45.2088C74.0608 45.7598 74.177 46.2625 74.4286 46.6849C74.6918 47.1269 75.064 47.4141 75.4764 47.5781C75.8657 47.7329 76.263 47.7675 76.5932 47.7677C76.9229 47.7679 77.257 47.7321 77.5212 47.7046L77.3141 45.7154C77.029 45.745 76.8012 45.7678 76.5944 45.7677C76.388 45.7675 76.2742 45.743 76.2154 45.7196C76.1799 45.7055 76.1672 45.6956 76.1468 45.6614C76.1148 45.6076 76.0484 45.455 76.0316 45.1114L74.034 45.2088ZM77.2635 42.1964C76.9379 42.228 76.5699 42.2629 76.2277 42.3285C75.8845 42.3943 75.4954 42.503 75.1381 42.7214C74.7597 42.9525 74.4471 43.2885 74.2515 43.7473C74.0646 44.1858 74.0084 44.6804 74.034 45.2084L76.0316 45.1118C76.0152 44.7727 76.0605 44.604 76.0914 44.5314C76.1138 44.479 76.1354 44.4558 76.1809 44.428C76.2473 44.3874 76.3716 44.3373 76.6042 44.2927C76.8379 44.248 77.1084 44.2209 77.4569 44.187L77.2635 42.1964ZM77.2459 42.1983L77.2456 42.1983L77.4748 44.1851L77.4751 44.1851L77.2459 42.1983ZM77.3552 42.1875L77.2636 42.1964L77.4574 44.187L77.549 44.178L77.3552 42.1875ZM77.5178 42.1713C77.4636 42.1768 77.4095 42.1822 77.3548 42.1875L77.5493 44.178C77.6054 44.1725 77.6628 44.1669 77.7211 44.1609L77.5178 42.1713ZM89.5648 31.3675C88.9437 37.3511 84.3263 41.484 77.519 42.1711L77.7199 44.161C85.2797 43.3979 90.8166 38.6797 91.5541 31.574L89.5648 31.3675ZM89.5531 15.4152C90.2007 20.7002 90.1146 26.0548 89.5647 31.3678L91.5541 31.5737C92.1157 26.1477 92.2081 20.6384 91.5383 15.1719L89.5531 15.4152ZM77.2801 4.49327C80.8488 4.84887 83.7201 6.03561 85.7857 7.87384C87.8432 9.70481 89.1649 12.2376 89.5531 15.4148L91.5383 15.1723C91.0963 11.5548 89.5673 8.56187 87.1153 6.37979C84.6715 4.20498 81.3747 2.89138 77.4785 2.50313L77.2801 4.49327ZM76.9477 4.46284C77.0616 4.47277 77.1704 4.48228 77.2796 4.49322L77.479 2.50318C77.355 2.49076 77.2335 2.48017 77.1216 2.47041L76.9477 4.46284ZM76.9515 4.46316L76.9516 4.46317L77.1177 2.47007L77.1175 2.47006L76.9515 4.46316ZM76.941 4.46223L76.9412 4.46224L77.1278 2.47098L77.1277 2.47096L76.941 4.46223ZM74.0482 1.62092C73.99 2.61883 74.2456 3.47477 75.0319 3.97903C75.3666 4.19363 75.7288 4.2949 76.0371 4.35318C76.3434 4.41107 76.6706 4.43866 76.9474 4.46281L77.1213 2.47038C76.82 2.44409 76.5979 2.42376 76.4085 2.38796C76.2211 2.35255 76.141 2.31436 76.1115 2.29545C76.1038 2.29049 76.1 2.29258 76.0866 2.25837C76.0646 2.20188 76.0265 2.05186 76.0448 1.73749L74.0482 1.62092ZM77.3684 -0.959481C77.0797 -0.961231 76.74 -0.964173 76.4168 -0.934734C76.0916 -0.905115 75.7131 -0.838018 75.3506 -0.660569C74.9675 -0.47298 74.6368 -0.178671 74.4047 0.241995C74.1825 0.6446 74.0779 1.11288 74.0482 1.62092L76.0448 1.73749C76.0634 1.41945 76.1223 1.26894 76.1558 1.20827C76.1793 1.16565 76.1964 1.15218 76.2301 1.1357C76.2844 1.10908 76.3917 1.07583 76.5982 1.05702C76.8067 1.03804 77.0447 1.03859 77.3563 1.04048L77.3684 -0.959481ZM77.6057 -0.95852C77.5275 -0.95852 77.4493 -0.958991 77.3684 -0.959481L77.3563 1.04048C77.4362 1.04097 77.5204 1.04148 77.6057 1.04148V-0.95852ZM95.6438 14.9768C94.7466 5.8586 86.7612 -0.971719 77.6043 -0.958519L77.6071 1.04148C85.795 1.02968 92.8629 7.13862 93.6534 15.1727L95.6438 14.9768ZM95.7569 30.6502C96.0045 26.1197 96.1936 20.5375 95.6438 14.9764L93.6535 15.1732C94.1877 20.576 94.0063 26.0329 93.7599 30.5411L95.7569 30.6502ZM94.0779 31.3284L94.0847 31.3347L95.4321 29.8566L95.4252 29.8503L94.0779 31.3284ZM22.4492 40.2166C20.7523 40.2025 19.469 39.4471 18.7703 38.4278C18.0763 37.4153 17.9123 36.0821 18.5624 34.7549L16.7663 33.8751C15.797 35.854 16.0215 37.955 17.1206 39.5586C18.2151 41.1552 20.1298 42.1975 22.4326 42.2165L22.4492 40.2166ZM21.5629 40.7378L21.5619 40.7397L23.3199 41.6934L23.3209 41.6916L21.5629 40.7378ZM22.6176 40.2001C22.5387 40.2045 22.4329 40.2101 22.3371 40.2202L22.5466 42.2092C22.5828 42.2054 22.6339 42.2023 22.7284 42.1971L22.6176 40.2001ZM23.1717 40.1353C23.0286 40.1739 22.855 40.1869 22.6176 40.2001L22.7284 42.1971C22.936 42.1855 23.3161 42.1678 23.6925 42.0663L23.1717 40.1353ZM24.9436 39.6639C24.3547 39.8193 23.7624 39.9756 23.171 40.1355L23.6931 42.0661C24.2776 41.9081 24.8639 41.7534 25.4538 41.5978L24.9436 39.6639ZM24.949 39.6625L24.9483 39.6627L25.4491 41.599L25.4498 41.5988L24.949 39.6625ZM24.957 39.6605L24.9568 39.6605L25.4419 41.6008L25.442 41.6008L24.957 39.6605ZM30.2621 38.1511C28.5291 38.7177 26.753 39.1866 24.9444 39.6637L25.4546 41.5976C27.2536 41.123 29.0862 40.6398 30.8837 40.052L30.2621 38.1511ZM31.9641 34.8814C32.4522 36.2543 31.8402 37.6354 30.2623 38.151L30.8836 40.0521C33.5098 39.1938 34.7207 36.6645 33.8486 34.2114L31.9641 34.8814ZM29.5289 33.158C30.6908 33.2544 31.6468 33.9897 31.9642 34.8816L33.8485 34.2112C33.2365 32.4913 31.542 31.3182 29.6944 31.1648L29.5289 33.158ZM29.4996 33.159C29.5105 33.1589 29.5184 33.1588 29.5257 33.1588C29.5328 33.1588 29.5375 33.1588 29.5406 33.1589C29.5437 33.1589 29.5442 33.1589 29.5427 33.1589C29.5412 33.1588 29.5365 33.1586 29.5295 33.158L29.6938 31.1648C29.603 31.1573 29.5142 31.1588 29.4834 31.159L29.4996 33.159ZM29.4914 33.159H29.4915V31.159H29.4914V33.159ZM28.2455 31.5022C28.1945 31.6577 28.1383 31.8913 28.1762 32.1561C28.2211 32.471 28.3901 32.759 28.6668 32.946C28.8964 33.1013 29.1278 33.1367 29.2363 33.1487C29.3519 33.1615 29.4637 33.1593 29.4995 33.159L29.4833 31.159C29.4207 31.1596 29.4321 31.1582 29.4559 31.1608C29.4727 31.1627 29.6211 31.177 29.7871 31.2893C30.0002 31.4334 30.1251 31.6565 30.1561 31.8735C30.1799 32.0406 30.14 32.1434 30.1462 32.1245L28.2455 31.5022ZM27.925 29.288C28.4088 30.0081 28.5036 30.7157 28.2457 31.5015L30.1459 32.1252C30.6 30.7418 30.4057 29.394 29.5851 28.1727L27.925 29.288ZM27.9904 27.7355C27.8025 27.9831 27.7417 28.2611 27.725 28.446C27.7101 28.6101 27.7054 28.9619 27.9255 29.2888L29.5846 28.1719C29.6745 28.3055 29.7014 28.4257 29.7106 28.4815C29.721 28.5447 29.7198 28.5938 29.7168 28.6265C29.7138 28.6603 29.7068 28.6985 29.6925 28.7418C29.6797 28.7805 29.65 28.857 29.5835 28.9446L27.9904 27.7355ZM31.2769 23.501C30.1663 24.9029 29.0735 26.3158 27.9919 27.7335L29.582 28.9466C30.6584 27.5357 31.7434 26.1329 32.8446 24.7429L31.2769 23.501ZM32.6815 22.9643C32.4026 22.9257 32.1404 22.9804 31.9576 23.0422C31.7929 23.0979 31.4962 23.2248 31.2775 23.5002L32.8439 24.7437C32.7669 24.8408 32.6919 24.8888 32.6651 24.9048C32.6322 24.9245 32.609 24.9332 32.5982 24.9368C32.5865 24.9408 32.5714 24.9449 32.5498 24.9478C32.532 24.9502 32.4816 24.9557 32.4072 24.9454L32.6815 22.9643ZM35.768 21.8473C34.99 22.7746 34.0121 23.1526 32.6845 22.9647L32.4042 24.945C34.3733 25.2236 36.0519 24.6208 37.3002 23.1327L35.768 21.8473ZM35.9696 21.6076C35.9029 21.6868 35.8353 21.767 35.7679 21.8475L37.3003 23.1326C37.366 23.0543 37.432 22.9759 37.499 22.8965L35.9696 21.6076ZM37.1947 20.0428C36.8463 20.5657 36.4292 21.0624 35.9696 21.6076L37.499 22.8965C37.9455 22.3666 38.4376 21.7844 38.8591 21.1517L37.1947 20.0428ZM38.3147 18.0507C38.0675 18.7012 37.6634 19.3393 37.1947 20.0428L38.8591 21.1518C39.3217 20.4575 39.8471 19.6483 40.1842 18.7613L38.3147 18.0507ZM36.3454 13.6556C38.224 14.5786 38.9594 16.3556 38.3147 18.0506L40.1841 18.7615C41.2467 15.9675 39.898 13.1728 37.2274 11.8606L36.3454 13.6556ZM31.7446 13.5278C33.3265 12.986 34.8829 12.9364 36.3451 13.6554L37.2277 11.8607C35.1638 10.8458 33.0326 10.9726 31.0965 11.6357L31.7446 13.5278ZM25.7118 16.001C27.6826 15.0785 29.6935 14.2303 31.7446 13.5278L31.0965 11.6357C28.9594 12.3677 26.8798 13.246 24.8639 14.1896L25.7118 16.001ZM24.5273 19.2116C23.9545 17.9949 24.4008 16.6149 25.7119 16.0009L24.8638 14.1897C22.5312 15.282 21.6832 17.8658 22.7178 20.0635L24.5273 19.2116ZM28.1366 20.673C26.6062 21.1184 25.1042 20.4362 24.5272 19.2114L22.7179 20.0637C23.7564 22.2682 26.3189 23.285 28.6954 22.5934L28.1366 20.673ZM28.3772 20.5686C28.2277 20.639 28.1703 20.6633 28.1381 20.6726L28.6939 22.5938C28.9085 22.5317 29.1174 22.4307 29.2289 22.3782L28.3772 20.5686ZM29.8099 20.4025C29.3887 20.2188 28.9931 20.3293 28.8418 20.3767C28.659 20.4339 28.4771 20.5216 28.3772 20.5686L29.2289 22.3782C29.2905 22.3492 29.3349 22.3284 29.3753 22.3109C29.4155 22.2934 29.4345 22.2868 29.4393 22.2853C29.4466 22.2831 29.4123 22.2951 29.3499 22.299C29.2854 22.3031 29.1586 22.3003 29.0105 22.2358L29.8099 20.4025ZM30.6764 21.4438C30.639 21.3523 30.5668 21.1691 30.467 21.0022C30.3661 20.8333 30.1681 20.5593 29.8113 20.4031L29.0091 22.2351C28.9126 22.1929 28.8458 22.1377 28.8055 22.0966C28.7677 22.0579 28.7507 22.029 28.7502 22.0281C28.7494 22.0268 28.7558 22.0376 28.7703 22.07C28.7852 22.1032 28.8008 22.1411 28.8244 22.199L30.6764 21.4438ZM30.7605 21.6355C30.7646 21.6415 30.758 21.6328 30.7408 21.5959C30.7231 21.5579 30.705 21.514 30.6764 21.4438L28.8244 22.199C28.8688 22.3077 28.9621 22.5476 29.1069 22.7605L30.7605 21.6355ZM30.6646 23.4326C30.7826 23.2852 30.9813 23.011 31.0267 22.6307C31.0768 22.2108 30.9208 21.87 30.7594 21.6338L29.1081 22.7622C29.1092 22.7638 29.0136 22.6214 29.0407 22.3937C29.0632 22.2056 29.1556 22.1173 29.1031 22.1829L30.6646 23.4326ZM29.2385 25.2324C29.7143 24.6294 30.1878 24.0292 30.665 23.4321L29.1027 22.1835C28.6209 22.7863 28.1435 23.3913 27.6683 23.9936L29.2385 25.2324ZM29.2396 25.231L29.2397 25.2308L27.6671 23.9952L27.667 23.9953L29.2396 25.231ZM27.3988 27.5477C28.0192 26.7777 28.6306 26.0028 29.2383 25.2326L27.6682 23.9937C27.0595 24.7652 26.4544 25.5321 25.8414 26.2928L27.3988 27.5477ZM26.0206 28.1202C26.3089 28.1459 26.5742 28.0759 26.7588 28.0026C26.9361 27.9322 27.1989 27.7956 27.3986 27.5479L25.8416 26.2926C25.9008 26.2191 25.9547 26.1816 25.9741 26.1689C25.9976 26.1536 26.0134 26.1467 26.0209 26.1437C26.0288 26.1406 26.0412 26.1363 26.0614 26.1325C26.0782 26.1294 26.1263 26.1217 26.1985 26.1281L26.0206 28.1202ZM23.048 29.224C23.7848 28.3578 24.7322 28.002 26.0182 28.12L26.2009 26.1283C24.3637 25.9598 22.7423 26.4966 21.5246 27.9282L23.048 29.224ZM21.8836 30.5886C22.2715 30.1347 22.6603 29.6798 23.048 29.224L21.5246 27.9282C21.1387 28.3819 20.7514 28.835 20.3632 29.2892L21.8836 30.5886ZM21.8828 30.5895L21.8835 30.5888L20.3633 29.2891L20.3627 29.2898L21.8828 30.5895ZM21.8822 30.5902L21.8828 30.5895L20.3627 29.2898L20.362 29.2906L21.8822 30.5902ZM19.2164 33.7356C20.0937 32.6829 20.9857 31.6392 21.8823 30.5901L20.3619 29.2907C19.4667 30.3382 18.5666 31.3913 17.68 32.4552L19.2164 33.7356ZM18.5622 34.7554C18.7413 34.3903 18.9626 34.0406 19.217 33.7349L17.6793 32.4559C17.3134 32.8958 17.0083 33.3819 16.7666 33.8745L18.5622 34.7554ZM34.6664 6.69652C34.674 9.69341 37.2119 11.9141 40.2578 11.913L40.2571 9.91299C38.1575 9.91374 36.6708 8.43521 36.6664 6.69147L34.6664 6.69652ZM40.1729 1.49796C37.1958 1.50343 34.6576 3.75908 34.6664 6.69701L36.6664 6.69098C36.6613 5.00032 38.1577 3.50166 40.1765 3.49795L40.1729 1.49796ZM45.8335 6.73021C45.8235 3.66 43.3033 1.49256 40.173 1.49796L40.1764 3.49795C42.3771 3.49416 43.8277 4.93593 43.8336 6.73676L45.8335 6.73021ZM40.2582 11.913C43.2687 11.9108 45.8437 9.69059 45.8335 6.73005L43.8336 6.73692C43.8393 8.41599 42.3438 9.91149 40.2567 9.91299L40.2582 11.913ZM46.1954 40.254C44.1968 40.1807 42.3797 39.8542 40.7632 38.9678L39.8015 40.7214C41.7988 41.8167 43.9644 42.1735 46.1221 42.2527L46.1954 40.254ZM46.1607 40.2533H46.1587V42.2533H46.1607V40.2533ZM46.8858 40.185C46.6169 40.2077 46.3406 40.2311 46.0637 40.2581L46.2577 42.2486C46.5196 42.2231 46.7831 42.2008 47.0541 42.1779L46.8858 40.185ZM48.5872 40.0068C48.0393 40.0873 47.4805 40.1348 46.8858 40.185L47.0541 42.1779C47.6385 42.1286 48.2588 42.0765 48.8777 41.9856L48.5872 40.0068ZM63.0379 34.0645C58.8364 37.2692 53.9986 39.2119 48.5871 40.0068L48.8778 41.9856C54.5949 41.1458 59.7569 39.0825 64.2508 35.6547L63.0379 34.0645ZM63.9471 32.0562C64.0231 32.8611 63.7314 33.5356 63.0379 34.0645L64.2508 35.6548C65.4719 34.7235 66.0817 33.3868 65.9383 31.8682L63.9471 32.0562ZM59.3918 30.0362C61.4531 28.896 63.7671 30.1507 63.9471 32.0562L65.9383 31.8681C65.5998 28.2855 61.5258 26.5702 58.4237 28.2861L59.3918 30.0362ZM58.2313 30.7554C58.6377 30.4899 59.0086 30.2482 59.3919 30.0361L58.4236 28.2862C57.9656 28.5396 57.5339 28.8221 57.1376 29.0809L58.2313 30.7554ZM57.4543 31.2524C57.7225 31.0878 57.9838 30.9171 58.2313 30.7554L57.1376 29.0809C56.8862 29.2452 56.6485 29.4003 56.4084 29.5477L57.4543 31.2524ZM48.8133 34.7521C52.0436 34.23 54.8571 32.8476 57.4547 31.2521L56.4079 29.5479C53.91 31.0822 51.3546 32.3154 48.4941 32.7778L48.8133 34.7521ZM45.288 34.8286C46.3791 34.8888 47.6165 34.9462 48.8138 34.752L48.4936 32.7778C47.539 32.9326 46.5068 32.8928 45.3981 32.8317L45.288 34.8286ZM43.6132 32.7866C43.5714 33.1362 43.5481 33.6978 43.902 34.1751C44.2818 34.6873 44.8627 34.8051 45.2877 34.8286L45.3984 32.8317C45.301 32.8263 45.2845 32.8138 45.3125 32.8249C45.3523 32.8406 45.4365 32.8866 45.5086 32.984C45.577 33.0761 45.5897 33.154 45.591 33.1634C45.5914 33.1664 45.5866 33.128 45.5991 33.024L43.6132 32.7866ZM43.9175 31.3737C43.7923 31.808 43.6734 32.2869 43.6133 32.7858L45.599 33.0249C45.6406 32.6789 45.7271 32.3165 45.8392 31.928L43.9175 31.3737ZM43.1737 28.8679C43.6063 29.2558 43.8459 29.6432 43.9567 30.023C44.0672 30.4018 44.0703 30.8435 43.9174 31.374L45.8393 31.9277C46.0793 31.0945 46.1098 30.2619 45.8766 29.4627C45.6436 28.6644 45.1682 27.97 44.5088 27.3788L43.1737 28.8679ZM42.8803 26.9265C42.7801 27.0963 42.5871 27.4482 42.6338 27.8948C42.6834 28.3683 42.9682 28.6835 43.1734 28.8677L44.5092 27.3791C44.4422 27.319 44.5958 27.4276 44.623 27.6866C44.6356 27.8071 44.613 27.8985 44.5986 27.9414C44.5867 27.9771 44.5791 27.9829 44.6028 27.9427L42.8803 26.9265ZM49.9982 18.4084C47.2853 20.9506 44.7804 23.7055 42.8803 26.9265L44.6029 27.9427C46.3683 24.95 48.7238 22.3435 51.3657 19.8677L49.9982 18.4084ZM51.8772 18.0464C51.5948 17.9324 51.2435 17.8512 50.8532 17.9347C50.4732 18.016 50.1946 18.2247 49.999 18.4076L51.3649 19.8685C51.4306 19.8071 51.3918 19.8647 51.2716 19.8905C51.2121 19.9032 51.1614 19.9018 51.1289 19.8972C51.1009 19.8933 51.0979 19.8887 51.1281 19.9009L51.8772 18.0464ZM52.4383 18.1511C52.1335 18.1138 51.9831 18.0892 51.8773 18.0465L51.128 19.9008C51.523 20.0604 51.948 20.1061 52.1958 20.1363L52.4383 18.1511ZM52.4443 18.1518L52.438 18.151L52.196 20.1364L52.2023 20.1371L52.4443 18.1518ZM55.1552 17.2694C54.2096 17.9161 53.3986 18.269 52.4452 18.1519L52.2015 20.137C53.8806 20.3432 55.1996 19.662 56.2843 18.9202L55.1552 17.2694ZM62.9455 12.9937C60.1394 14.1281 57.5753 15.6132 55.155 17.2695L56.2845 18.92C58.6228 17.3198 61.0585 15.9138 63.6951 14.8479L62.9455 12.9937ZM68.5195 11.8938C66.5155 11.8199 64.6707 12.2956 62.9452 12.9938L63.6953 14.8478C65.2566 14.2161 66.8122 13.8322 68.4459 13.8924L68.5195 11.8938ZM71.4514 13.9611C71.2398 13.3592 70.9413 12.7808 70.3718 12.3902C69.8199 12.0116 69.1675 11.9176 68.5195 11.8938L68.446 13.8924C68.9966 13.9127 69.1718 13.9923 69.2404 14.0394C69.2914 14.0744 69.4062 14.1738 69.5646 14.6243L71.4514 13.9611ZM74.9971 15.7941C73.5186 16.188 71.9412 15.3535 71.4513 13.9609L69.5647 14.6246C70.409 17.0247 73.0477 18.3833 75.5121 17.7267L74.9971 15.7941ZM77.1059 12.5631C77.5206 13.9276 76.7504 15.3268 74.997 15.7941L75.5121 17.7266C78.1483 17.024 79.8233 14.6266 79.0195 11.9815L77.1059 12.5631ZM70.0381 6.79139C73.7357 7.45155 76.1171 9.3111 77.1059 12.5632L79.0194 11.9814C77.7705 7.87366 74.6754 5.58769 70.3896 4.82253L70.0381 6.79139ZM62.6682 7.56289C65.1548 6.80015 67.5812 6.35313 70.0382 6.79142L70.3894 4.8225C67.4716 4.30201 64.6848 4.85234 62.0817 5.65083L62.6682 7.56289ZM50.775 13.6718C54.46 11.0911 58.3227 8.89602 62.6682 7.56289L62.0817 5.65084C57.4645 7.06731 53.4096 9.38508 49.6277 12.0336L50.775 13.6718ZM49.9577 16.2863C49.6106 15.2837 49.935 14.2601 50.775 13.6718L49.6277 12.0336C48.0285 13.1535 47.4395 15.1256 48.0677 16.9405L49.9577 16.2863ZM49.4634 18.1842C49.6642 17.9979 49.9012 17.728 50.0109 17.3445C50.1246 16.9471 50.0592 16.5811 49.9582 16.2878L48.0672 16.939C48.0788 16.9729 48.0742 16.9703 48.0718 16.9414C48.069 16.9074 48.0708 16.8547 48.088 16.7944C48.1222 16.6748 48.1827 16.6442 48.1033 16.7178L49.4634 18.1842ZM41.9553 27.3417C43.8278 23.9042 46.4686 20.9613 49.4633 18.1842L48.1034 16.7177C45.0312 19.5666 42.2174 22.6794 40.1989 26.385L41.9553 27.3417ZM40.8081 28.1024C41.0393 28.0698 41.2503 27.982 41.4149 27.8842C41.5646 27.7954 41.8003 27.625 41.9544 27.3433L40.1998 26.3834C40.2504 26.291 40.305 26.2361 40.3308 26.2125C40.3596 26.1861 40.382 26.1715 40.394 26.1644C40.4067 26.1569 40.4199 26.1504 40.4357 26.1445C40.4501 26.1391 40.481 26.1288 40.5284 26.1221L40.8081 28.1024ZM38.3629 29.8603C38.7928 28.8612 39.5529 28.2767 40.8058 28.1028L40.5307 26.1218C38.6485 26.3831 37.2566 27.3709 36.5257 29.07L38.3629 29.8603ZM37.6428 34.2667C37.5501 32.7332 37.761 31.2595 38.3629 29.8603L36.5258 29.0699C35.7835 30.795 35.5376 32.5871 35.6464 34.3873L37.6428 34.2667ZM40.7631 38.9677C38.7718 37.8758 37.7678 36.3224 37.6428 34.2663L35.6464 34.3877C35.8165 37.1842 37.2576 39.3264 39.8015 40.7214L40.7631 38.9677Z" fill="#F5EDDB" mask="url(#path-1-inside-1_51_3535)"/>
</svg>
